# xmcd
#
# Track frame offsets: 
#        150
#        10788
#        19752
#        32010
#        43134
#        54339
#        65193
#        78369
#        89223
#        100644
#        112092
#        125133
#        134475
#        145950
#
# Disc length: 2085 seconds
#
# Revision: 0
# Processed by: cddbd v1.5.2PL0 Copyright (c) Steve Scherf et al.
# Submitted via: ExactAudioCopy v0.99pb3
#
DISCID=ca08230e
DTITLE=Wynn Stewart - Signature Series
DYEAR=2004
DGENRE=Country
TTITLE0=Playboy
TTITLE1=Above And Beyond
TTITLE2=Wishful Thinking
TTITLE3=Another Day Another Dollar
TTITLE4=Couples Only
TTITLE5=Big Big Love
TTITLE6=Don't Look Back
TTITLE7=Big City
TTITLE8=Falling For You
TTITLE9=Heartaches For A Dime
TTITLE10=I Don't Feel At Home
TTITLE11=If You See My Baby
TTITLE12=One Way To Go
TTITLE13=Three Cheers For the Loser
EXTD=
EXTT0=
EXTT1=
EXTT2=
EXTT3=
EXTT4=
EXTT5=
EXTT6=
EXTT7=
EXTT8=
EXTT9=
EXTT10=
EXTT11=
EXTT12=
EXTT13=
PLAYORDER=
